<svg xmlns="http://www.w3.org/2000/svg" viewBox="0 0 314.68 286.73"><defs><style>.cls-1{fill:#fff;}</style></defs><title>rightChevron</title><g id="Layer_2" data-name="Layer 2"><g id="Capa_1" data-name="Capa 1"><path class="cls-1" d="M74.21,26.2Q65.57,33,65.83,42.48q.26,9.33,9.29,16.18L139.33,145,80,232.83q-8.65,6.78-8.38,16.28.26,9.33,9.29,16.18L99.4,278.46q9,6.5,21.67,6.29c8.43-.13,57.64,4.52,63.4,0L294.73,158.53q8.64-7.14,8.38-16.46-.26-9.51-9.29-16L184.47,2.49C178.61-2,122.6.89,114,1Z"/><polygon class="cls-1" points="314.68 141.79 226.07 237.13 217.42 39.73 314.68 141.79"/><polygon class="cls-1" points="0 0 172 0 139.33 145.03 0 0"/><polygon class="cls-1" points="15.46 286.41 162.5 286.73 139.33 145.03 15.46 286.41"/></g></g></svg>